<svg xmlns="http://www.w3.org/2000/svg" width="30" height="30" viewBox="0 0 30 30">
    <g fill="none" fill-rule="nonzero">
        <path fill="#e71717" d="M15.5 12a3.5 3.5 0 1 1 0-7 3.5 3.5 0 0 1 0 7zM4 16h2a1 1 0 0 1 1 1v8.5a1 1 0 0 1-1 1H4a1 1 0 0 1-1-1V17a1 1 0 0 1 1-1z"/>
        <path fill="#F2F2F5" d="M13.055 17.817l-4.524.803a.75.75 0 0 1-.262-1.477l4.589-.815.131-.011h4.336c2.261 0 3.787 1.425 3.107 4.142a.75.75 0 0 1-.727.568H15.04a.75.75 0 0 1 0-1.5h4.04c.127-1.223-.545-1.71-1.755-1.71h-4.27zm7.822 1.615l-.627.4a.75.75 0 0 1-.807-1.264l.794-.507a.75.75 0 0 1 .404-.118c.25 0 .493-.085.686-.24l2.509-2.007.088-.06a2.785 2.785 0 0 1 3.574.641l.095.118a2.489 2.489 0 0 1-.19 3.35l-5.24 5.343a7.219 7.219 0 0 1-4.612 1.662h-4.577c-.756 0-1.505-.14-2.206-.411L8.13 25.317a.75.75 0 0 1 .542-1.399l2.639 1.022c.528.205 1.093.31 1.664.31h4.577c1.338 0 2.633-.466 3.598-1.263l5.196-5.305a.994.994 0 0 0 .082-1.344l-.095-.117a1.285 1.285 0 0 0-1.606-.316l-2.462 1.97a2.597 2.597 0 0 1-1.387.557z"/>
    </g>
</svg>
