<svg xmlns="http://www.w3.org/2000/svg" width="30" height="30" viewBox="0 0 30 30">
    <g fill="none" fill-rule="nonzero">
        <path fill="#e71717" d="M5.5 12h3a1.5 1.5 0 0 1 1.5 1.5v9A1.5 1.5 0 0 1 8.5 24h-3A1.5 1.5 0 0 1 4 22.5v-9A1.5 1.5 0 0 1 5.5 12"/>
        <path fill="#F2F2F5" d="M23.432 11.275a3.476 3.476 0 0 1 3.475 3.476c0 1.896-.364 3.775-1.072 5.534l-.599 1.488a4.75 4.75 0 0 1-4.406 2.977h-3.957a6.75 6.75 0 0 1-3.231-.824l-2.001-1.09a.75.75 0 1 1 .718-1.317l2 1.09a5.25 5.25 0 0 0 2.514.641h3.957a3.25 3.25 0 0 0 3.015-2.037l.599-1.488c.636-1.581.963-3.27.963-4.974a1.976 1.976 0 0 0-1.975-1.976h-3.749c-.69 0-1.25-.56-1.25-1.25V7.637c0-.496-.155-.98-.444-1.384a1.202 1.202 0 0 0-.978-.503h-.667a.25.25 0 0 0-.25.25v2.753a4.75 4.75 0 0 1-2.083 3.93l-1.59 1.08a.75.75 0 0 1-.842-1.242l1.59-1.079a3.25 3.25 0 0 0 1.425-2.689V6c0-.966.783-1.75 1.75-1.75h.667c.872 0 1.69.421 2.198 1.13a3.88 3.88 0 0 1 .724 2.257v3.638h3.499z"/>
    </g>
</svg>
