<svg xmlns="http://www.w3.org/2000/svg" width="30" height="30" viewBox="0 0 30 30">
    <g fill="none" fill-rule="nonzero">
        <path fill="#F2F2F5" d="M23.779 23l1.091-5.135-1.027-.219a1.95 1.95 0 0 1-1.502-2.312l.218-1.027-14.183-3.015-.218 1.027a1.95 1.95 0 0 1-2.313 1.502l-1.027-.218-1.091 5.135 1.027.218a1.95 1.95 0 0 1 1.502 2.313l-.27 1.272 14.182 3.014.27-1.271a1.95 1.95 0 0 1 2.313-1.502L23.78 23zm-.312 1.467l-1.027-.218a.45.45 0 0 0-.534.347l-.27 1.271 1.467.312.364-1.712zm1.715-8.07l.312-1.467-1.467-.312-.219 1.027a.45.45 0 0 0 .347.534l1.027.218zM4.518 22.23l.27-1.272a.45.45 0 0 0-.346-.534l-1.027-.218-.364 1.712 1.467.312zm2.391-11.25l-1.467-.31-.312 1.466 1.027.219a.45.45 0 0 0 .534-.347l.218-1.027zM5.02 9.046l21.52 4.574a.75.75 0 0 1 .577.89l-2.703 12.715a.75.75 0 0 1-.89.578L2.006 23.228a.75.75 0 0 1-.577-.89L4.13 9.624a.75.75 0 0 1 .889-.578zM8.233 7.82a.75.75 0 1 1-1.365-.623l1.447-3.169c.39-.801 1.349-1.15 2.146-.76l13.946 6.802a.75.75 0 1 1-.657 1.348L9.803 4.617c-.042-.02-.107.003-.132.052L8.233 7.821z"/>
        <path fill="#e71717" d="M13.493 22.092a3.75 3.75 0 1 1 1.559-7.337 3.75 3.75 0 0 1-1.56 7.337zm.312-1.468a2.25 2.25 0 1 0 .935-4.401 2.25 2.25 0 0 0-.935 4.401z"/>
    </g>
</svg>
