<svg width="30" height="30" viewBox="0 0 30 30" fill="none" xmlns="http://www.w3.org/2000/svg">
  <path d="M5.5 15L4.96967 15.5303C5.22247 15.7831 5.61856 15.8223 5.91603 15.624L5.5 15ZM8.89414 21.475C8.60417 21.1792 8.12932 21.1745 7.83353 21.4644C7.53774 21.7544 7.53302 22.2292 7.82299 22.525L8.89414 21.475ZM3.53033 11.9697C3.23744 11.6768 2.76256 11.6768 2.46967 11.9697C2.17678 12.2626 2.17678 12.7374 2.46967 13.0303L3.53033 11.9697ZM8.91603 13.624C9.26067 13.3943 9.3538 12.9286 9.12404 12.584C8.89427 12.2393 8.42862 12.1462 8.08397 12.376L8.91603 13.624ZM24.75 15C24.75 20.1086 20.6086 24.25 15.5 24.25V25.75C21.4371 25.75 26.25 20.9371 26.25 15H24.75ZM6.25 15C6.25 9.89137 10.3914 5.75 15.5 5.75V4.25C9.56294 4.25 4.75 9.06294 4.75 15H6.25ZM15.5 5.75C20.6086 5.75 24.75 9.89137 24.75 15H26.25C26.25 9.06294 21.4371 4.25 15.5 4.25V5.75ZM15.5 24.25C12.9123 24.25 10.5738 23.1884 8.89414 21.475L7.82299 22.525C9.77316 24.5144 12.493 25.75 15.5 25.75V24.25ZM6.03033 14.4697L3.53033 11.9697L2.46967 13.0303L4.96967 15.5303L6.03033 14.4697ZM5.91603 15.624L8.91603 13.624L8.08397 12.376L5.08397 14.376L5.91603 15.624Z" fill="#F2F2F5"/>
  <path d="M15 10V15L18.5 17.5" stroke="#e71717" stroke-width="1.5" stroke-linecap="round" stroke-linejoin="round"/>
</svg>
