<svg xmlns="http://www.w3.org/2000/svg" width="30" height="30" viewBox="0 0 30 30">
    <g fill="none" fill-rule="evenodd">
        <path fill="#F2F2F5" d="M11 6c2.444 0 2.75.01 3.71.054.959.044 1.613.196 2.185.419.592.23 1.094.537 1.594 1.038.5.5.809 1.002 1.039 1.594.222.572.374 1.226.418 2.184.044.96.054 1.267.054 3.711s-.01 2.75-.054 3.71c-.044.959-.196 1.613-.418 2.185a4.412 4.412 0 0 1-1.039 1.594c-.5.5-1.002.809-1.594 1.039-.572.222-1.226.374-2.184.418-.96.044-1.267.054-3.711.054s-2.75-.01-3.71-.054c-.959-.044-1.613-.196-2.185-.418a4.412 4.412 0 0 1-1.594-1.039c-.5-.5-.809-1.002-1.038-1.594-.223-.572-.375-1.226-.419-2.184C2.01 17.75 2 17.444 2 15s.01-2.75.054-3.71c.044-.959.196-1.613.419-2.185A4.411 4.411 0 0 1 3.51 7.51c.5-.5 1.002-.809 1.594-1.038.572-.223 1.226-.375 2.184-.419C8.25 6.01 8.556 6 11 6zm0 1.622c-2.403 0-2.688.009-3.637.052-.877.04-1.354.187-1.67.31-.421.163-.72.358-1.036.673-.315.315-.51.615-.673 1.035-.123.317-.27.794-.31 1.671-.043.95-.052 1.234-.052 3.637s.009 2.688.052 3.637c.04.877.187 1.354.31 1.67.163.421.358.72.673 1.036.315.315.615.51 1.035.673.317.123.794.27 1.671.31.95.043 1.234.052 3.637.052s2.688-.009 3.637-.052c.877-.04 1.354-.187 1.67-.31.421-.163.72-.358 1.036-.673.315-.315.51-.615.673-1.035.123-.317.27-.794.31-1.671.043-.95.052-1.234.052-3.637s-.009-2.688-.052-3.637c-.04-.877-.187-1.354-.31-1.67a2.788 2.788 0 0 0-.673-1.036 2.788 2.788 0 0 0-1.035-.673c-.317-.123-.794-.27-1.671-.31-.95-.043-1.234-.052-3.637-.052zM6.378 15a4.622 4.622 0 1 1 9.244 0 4.622 4.622 0 0 1-9.244 0zM11 18a3 3 0 1 0 0-6 3 3 0 0 0 0 6zm4.804-6.724a1.08 1.08 0 1 1 0-2.16 1.08 1.08 0 0 1 0 2.16z"/>
        <path fill="#e71717" fill-rule="nonzero" d="M26 14.5h1.75a.75.75 0 1 1 0 1.5H26v1.75a.75.75 0 1 1-1.5 0V16h-1.75a.75.75 0 1 1 0-1.5h1.75v-1.75a.75.75 0 1 1 1.5 0v1.75z"/>
    </g>
</svg>
