<svg xmlns="http://www.w3.org/2000/svg" width="30" height="30" viewBox="0 0 30 30">
    <g fill="none" fill-rule="evenodd">
        <path fill="#F2F2F5" fill-rule="nonzero" d="M24.196 25.257a.75.75 0 1 1 .206 1.486c-.075.01.704.01-19.828.007a1.25 1.25 0 0 1-1.238-1.422l2.305-16.57A1.75 1.75 0 0 1 7.374 7.25h.612a.75.75 0 1 1 0 1.5h-.612a.25.25 0 0 0-.247.216L4.862 25.25c5.9 0 19.378.001 19.334.007zm-5.922-16.07A.751.751 0 0 1 18.25 9V5.937c0-1.757-1.452-3.187-3.25-3.187s-3.25 1.43-3.25 3.188V9a.751.751 0 0 1-.024.187 1.5 1.5 0 1 1-1.452 0A.751.751 0 0 1 10.25 9V5.937c0-2.591 2.13-4.687 4.75-4.687s4.75 2.096 4.75 4.688V9a.751.751 0 0 1-.024.187 1.5 1.5 0 1 1-1.452 0zm3.7-.437a.75.75 0 1 1 0-1.5h.652a1.75 1.75 0 0 1 1.733 1.509l.36 2.59a.75.75 0 1 1-1.485.206l-.36-2.59a.25.25 0 0 0-.248-.215h-.653zM14 8.75a.75.75 0 1 1 0-1.5h2a.75.75 0 1 1 0 1.5h-2z"/>
        <path fill="#e71717" d="M18.934 17.755l.73-3.928a.5.5 0 0 1 .573-.402l3.94.658a1 1 0 0 1 .655.413l3.064 4.376a.5.5 0 0 1-.123.697L22.86 23.01a.5.5 0 0 1-.697-.123l-3.064-4.376a1 1 0 0 1-.164-.756z"/>
    </g>
</svg>
