<svg xmlns="http://www.w3.org/2000/svg" width="30" height="30" viewBox="0 0 30 30">
    <g fill="none" fill-rule="evenodd">
        <path fill="#e71717" d="M14 8.989a5.193 5.193 0 0 1-2.13 1.509c-1.148.435-2.504.435-4.058.024a.75.75 0 0 1 .383-1.45c1.274.336 2.317.336 3.142.023.471-.178.888-.442 1.255-.796h-2.167a3.007 3.007 0 0 1-3.007-3.006c0-1.677 1.13-3.043 2.688-3.043 1.359 0 2.683.899 3.554 2.252l1.335 1.969 1.334-1.969c.871-1.353 2.196-2.252 3.555-2.252 1.557 0 2.687 1.366 2.687 3.043a3.007 3.007 0 0 1-3.007 3.006h-2.216c.367.354.784.618 1.255.796.825.313 1.868.313 3.142-.024a.75.75 0 0 1 .383 1.45c-1.554.412-2.91.412-4.057-.023A5.182 5.182 0 0 1 16 9.058V25.55a.45.45 0 0 1-.45.45h-1.1a.45.45 0 0 1-.45-.45V8.989zm5.564-2.19c.833 0 1.507-.674 1.507-1.506 0-.905-.527-1.543-1.187-1.543-.786 0-1.675.603-2.303 1.579l-.997 1.47h2.98zm-6.158 0l-.997-1.47c-.628-.976-1.517-1.579-2.303-1.579-.66 0-1.188.638-1.188 1.543 0 .832.675 1.506 1.507 1.506h2.98z"/>
        <path fill="#F2F2F5" fill-rule="nonzero" d="M25.185 14.737l-.967 10.425a1.75 1.75 0 0 1-1.742 1.588H7.524a1.75 1.75 0 0 1-1.742-1.588l-.967-10.425C3.66 14.615 2.75 13.667 2.75 12.5v-2c0-1.25 1.045-2.25 2.318-2.25h.541a.75.75 0 0 1 0 1.5h-.54c-.46 0-.819.343-.819.75v2c0 .407.359.75.818.75h19.864c.459 0 .818-.343.818-.75v-2c0-.407-.359-.75-.818-.75h-.504a.75.75 0 0 1 0-1.5h.504c1.273 0 2.318 1 2.318 2.25v2c0 1.166-.91 2.115-2.065 2.237zm-18.862.013l.952 10.273a.25.25 0 0 0 .25.227h14.95a.25.25 0 0 0 .25-.227l.952-10.273H6.323z"/>
    </g>
</svg>
